<svg xmlns="http://www.w3.org/2000/svg" id="emoji" viewBox="0 0 72 72"><g id="color"><g id="color-2" data-name="color"><polygon id="SVGID" fill="#fcea2b" points="35.444 13.582 26.739 15.276 21.393 18.324 16.46 23.45 13 30.867 13 43.319 18.649 52.805 26.739 58.305 35.444 60 42.687 58.839 50.464 54.47 55.619 48.255 58.645 38.961 57.889 30.908 54.046 22.926 49.799 18.566 42.486 14.671 35.444 13.582"/></g><polygon fill="#f4aa41" points="14.5 7.5 16.5 22.5 32.5 16.5 14.5 7.5"/><polyline fill="#e27022" points="26.421 13.46 32.5 16.5 19.349 21.432"/><polygon fill="#ea5a47" points="14.833 11.888 20.058 9.871 22.891 11.633 15 15 14.833 11.888"/><polyline fill="#d22f27" points="24.858 13.446 26 13 30 14 23.5 16.785"/><polyline fill="#ea5a47" points="23.5 16.785 15.996 20 15.833 16.966 24.858 13.446"/></g><g id="line"><g><g id="line-2" data-name="line"><path fill="none" stroke="#000" stroke-linecap="round" stroke-linejoin="round" stroke-width="2" d="M35.8867,43.1381s10.5509,3.1081.0462,5.5636c0,0,10.4821,2.9013.0408,4.9123"/><path fill="none" stroke="#000" stroke-linecap="round" stroke-linejoin="round" stroke-width="2" d="M20.4568,28.3749a6.3058,6.3058,0,0,1,3.3656-3.028,6.304,6.304,0,0,1,4.5266-.4585"/><path fill="none" stroke="#000" stroke-linecap="round" stroke-linejoin="round" stroke-width="2" d="M50.0661,28.1291a7.19,7.19,0,0,0-7.9374-3.3648"/><path fill="none" stroke="#000" stroke-linecap="round" stroke-linejoin="round" stroke-width="2" d="M22.891,35.3986a8.9409,8.9409,0,0,1,8-.0664"/><path fill="none" stroke="#000" stroke-linecap="round" stroke-linejoin="round" stroke-width="2" d="M40.14,35.2554a8.9411,8.9411,0,0,1,8-.0665"/><path fill="none" stroke="#000" stroke-linecap="round" stroke-linejoin="round" stroke-width="2" d="M45.3847,16.3139a23.0006,23.0006,0,1,1-29.4033,8.4375"/><path fill="none" stroke="#000" stroke-linecap="round" stroke-linejoin="round" stroke-width="2" d="M34.3936,14.072q.4163-.0184.8362-.0219a22.9056,22.9056,0,0,1,10.1549,2.2638"/></g><g><line x1="16.822" x2="14" y1="22" y2="7" fill="none" stroke="#000" stroke-linecap="round" stroke-linejoin="round" stroke-width="2"/><line x1="33" x2="14" y1="16.266" y2="7" fill="none" stroke="#000" stroke-linecap="round" stroke-linejoin="round" stroke-width="2"/><line x1="16.822" x2="33" y1="22" y2="16.266" fill="none" stroke="#000" stroke-linecap="round" stroke-linejoin="round" stroke-width="2"/></g><path fill="none" stroke="#000" stroke-linecap="round" stroke-linejoin="round" stroke-width="2" d="M61.3835,12.6328a4.8763,4.8763,0,0,1-.4556,1.484A5.279,5.279,0,0,1,54.02,16.5093"/><path fill="none" stroke="#000" stroke-linecap="round" stroke-linejoin="round" stroke-width="2" d="M65.8636,44.369a4.8789,4.8789,0,0,1-1.4418-.5754,5.2791,5.2791,0,0,1-1.82-7.0809"/><path fill="none" stroke="#000" stroke-linecap="round" stroke-linejoin="round" stroke-width="2" d="M61.3835,63.988a4.8763,4.8763,0,0,0-.4556-1.484A5.279,5.279,0,0,0,54.02,60.1115"/><path fill="none" stroke="#000" stroke-linecap="round" stroke-linejoin="round" stroke-width="2" d="M24.1766,56.9449a4.8757,4.8757,0,0,0-1.1578-1.0341,5.279,5.279,0,0,0-7.15,1.5276"/><path d="M61.6487,26.4793a1.5009,1.5009,0,0,0,0-3,1.5009,1.5009,0,0,0,0,3Z"/><path d="M61.6487,51.4793a1.5009,1.5009,0,0,0,0-3,1.5009,1.5009,0,0,0,0,3Z"/><path d="M28.6487,67.4793a1.5009,1.5009,0,0,0,0-3,1.5009,1.5009,0,0,0,0,3Z"/><path d="M19.6487,49.4793a1.5009,1.5009,0,0,0,0-3,1.5009,1.5009,0,0,0,0,3Z"/><path d="M43.6487,65.4793a1.5009,1.5009,0,0,0,0-3,1.5009,1.5009,0,0,0,0,3Z"/></g><path fill="none" stroke="#000" stroke-linecap="round" stroke-linejoin="round" stroke-width="2" d="M38,49h5.5S49,49,49,46c0-2.2319-1.5221-2.8033-3.4339-2.95"/></g><g id="color-foreground"><path fill="#8967aa" d="M61.6487,26.4793a1.5009,1.5009,0,0,0,0-3,1.5009,1.5009,0,0,0,0,3Z"/><path fill="#8967aa" d="M43.6487,65.4793a1.5009,1.5009,0,0,0,0-3,1.5009,1.5009,0,0,0,0,3Z"/><path fill="#f4aa41" d="M28.6487,67.4793a1.5009,1.5009,0,0,0,0-3,1.5009,1.5009,0,0,0,0,3Z"/><path fill="#d22f27" d="M19.6487,49.4793a1.5009,1.5009,0,0,0,0-3,1.5009,1.5009,0,0,0,0,3Z"/><path fill="#d22f27" d="M61.6487,51.4793a1.5009,1.5009,0,0,0,0-3,1.5009,1.5009,0,0,0,0,3Z"/></g></svg>