<svg xmlns="http://www.w3.org/2000/svg" xmlns:xlink="http://www.w3.org/1999/xlink" width="24" height="24" viewBox="0 0 24 24"><defs><clipPath id="clip-path"><rect id="Rect치ngulo_41" width="24" height="24" fill="none" data-name="Rect치ngulo 41"/></clipPath></defs><g id="image" clip-path="url(#clip-path)"><rect id="spacer" width="24" height="24" fill="none"/><rect id="Rect치ngulo_42" width="14" height="14" fill="#0f70ef" data-name="Rect치ngulo 42" rx="2" transform="translate(5 5)"/><path id="Trazado_62" fill="#12de9f" d="M0,1.274,14,0V3a2,2,0,0,1-2,2H2A2,2,0,0,1,0,3Z" data-name="Trazado 62" transform="translate(5 14)"/><path id="Trazado_63" fill="#0aa172" d="M6.375.672,14,0V3a2,2,0,0,1-2,2S8.024,4.974,6.453,5c-.738.012-1.159-1.395-.969-2.718A3.355,3.355,0,0,1,6.375.672Z" data-name="Trazado 63" transform="translate(5 14)"/><circle id="Elipse_3" cx="1.5" cy="1.5" r="1.5" fill="#ffc72e" data-name="Elipse 3" transform="translate(7 7)"/></g></svg>